<?xml version="1.0" encoding="utf-8"?>
<!-- Generator: Adobe Illustrator 23.0.6, SVG Export Plug-In . SVG Version: 6.00 Build 0)  -->
<svg version="1.1" id="Capa_1" xmlns="http://www.w3.org/2000/svg" xmlns:xlink="http://www.w3.org/1999/xlink" x="0px" y="0px"
	 viewBox="0 0 217 93" style="enable-background:new 0 0 217 93;" xml:space="preserve">
<style type="text/css">
	.st0{fill:#E8762A;}
</style>
<g>
	<rect x="114.75" y="1.56" class="st0" width="3" height="90"/>
</g>
<g>
	<path d="M8.84,45.77H6.3V33.53h2.54V45.77z"/>
	<path d="M18.34,37.24c0.59,0.49,0.89,1.3,0.89,2.44v6.09H16.8v-5.5c0-0.48-0.06-0.84-0.19-1.1c-0.23-0.46-0.67-0.7-1.32-0.7
		c-0.8,0-1.34,0.34-1.64,1.02c-0.15,0.36-0.23,0.82-0.23,1.38v4.9h-2.37v-9.03h2.29v1.32c0.3-0.46,0.59-0.8,0.86-1
		c0.48-0.37,1.1-0.55,1.84-0.55C16.98,36.51,17.75,36.75,18.34,37.24z"/>
	<path d="M25.9,36.71c0.57,0.24,1.04,0.68,1.39,1.31v-1.3h2.31v8.58c0,1.17-0.2,2.05-0.59,2.64c-0.68,1.02-1.97,1.53-3.88,1.53
		c-1.16,0-2.1-0.23-2.83-0.68c-0.73-0.45-1.13-1.13-1.21-2.03h2.57c0.07,0.28,0.17,0.48,0.32,0.6c0.25,0.22,0.68,0.32,1.29,0.32
		c0.85,0,1.42-0.29,1.71-0.85c0.19-0.37,0.28-0.98,0.28-1.84V44.4c-0.23,0.39-0.47,0.68-0.73,0.87c-0.47,0.36-1.08,0.54-1.83,0.54
		c-1.16,0-2.09-0.41-2.78-1.22c-0.69-0.82-1.04-1.92-1.04-3.32c0-1.34,0.33-2.48,1-3.39c0.67-0.92,1.62-1.37,2.84-1.37
		C25.17,36.51,25.56,36.57,25.9,36.71z M26.71,43.2c0.38-0.42,0.57-1.08,0.57-2c0-0.86-0.18-1.51-0.54-1.96s-0.84-0.67-1.45-0.67
		c-0.83,0-1.4,0.39-1.71,1.17c-0.17,0.42-0.25,0.93-0.25,1.54c0,0.53,0.09,0.99,0.26,1.4c0.32,0.76,0.89,1.15,1.72,1.15
		C25.86,43.83,26.33,43.62,26.71,43.2z"/>
	<path d="M37.71,36.9c0.63,0.28,1.15,0.73,1.56,1.34c0.37,0.54,0.61,1.16,0.72,1.87c0.06,0.42,0.09,1.01,0.08,1.8h-6.59
		c0.04,0.91,0.35,1.54,0.95,1.91c0.36,0.23,0.8,0.34,1.3,0.34c0.54,0,0.98-0.14,1.31-0.42c0.18-0.15,0.35-0.36,0.49-0.62h2.42
		c-0.06,0.54-0.36,1.08-0.88,1.64c-0.81,0.88-1.95,1.32-3.4,1.32c-1.2,0-2.27-0.37-3.19-1.11c-0.92-0.74-1.38-1.95-1.38-3.62
		c0-1.57,0.42-2.77,1.25-3.61c0.83-0.84,1.91-1.25,3.24-1.25C36.37,36.48,37.08,36.62,37.71,36.9z M34.17,38.95
		c-0.33,0.34-0.54,0.81-0.63,1.4h4.08c-0.04-0.63-0.25-1.1-0.63-1.43c-0.38-0.33-0.84-0.49-1.4-0.49
		C34.97,38.43,34.5,38.6,34.17,38.95z"/>
	<path d="M48.56,37.24c0.59,0.49,0.89,1.3,0.89,2.44v6.09h-2.42v-5.5c0-0.48-0.06-0.84-0.19-1.1c-0.23-0.46-0.67-0.7-1.32-0.7
		c-0.8,0-1.34,0.34-1.64,1.02c-0.15,0.36-0.23,0.82-0.23,1.38v4.9h-2.37v-9.03h2.29v1.32c0.3-0.46,0.59-0.8,0.86-1
		c0.48-0.37,1.1-0.55,1.84-0.55C47.21,36.51,47.97,36.75,48.56,37.24z"/>
	<path d="M54.08,35.64h-2.4v-2.18h2.4V35.64z M51.68,36.72h2.4v9.05h-2.4V36.72z"/>
	<path d="M62.27,36.9c0.63,0.28,1.15,0.73,1.56,1.34c0.37,0.54,0.61,1.16,0.72,1.87c0.06,0.42,0.09,1.01,0.08,1.8h-6.59
		c0.04,0.91,0.35,1.54,0.95,1.91c0.36,0.23,0.8,0.34,1.3,0.34c0.54,0,0.98-0.14,1.31-0.42c0.18-0.15,0.35-0.36,0.49-0.62h2.42
		c-0.06,0.54-0.36,1.08-0.88,1.64c-0.81,0.88-1.95,1.32-3.4,1.32c-1.2,0-2.27-0.37-3.19-1.11c-0.92-0.74-1.38-1.95-1.38-3.62
		c0-1.57,0.42-2.77,1.25-3.61c0.83-0.84,1.91-1.25,3.24-1.25C60.93,36.48,61.64,36.62,62.27,36.9z M58.73,38.95
		c-0.33,0.34-0.54,0.81-0.63,1.4h4.08c-0.04-0.63-0.25-1.1-0.63-1.43c-0.38-0.33-0.84-0.49-1.4-0.49
		C59.53,38.43,59.06,38.6,58.73,38.95z"/>
	<path d="M70.85,36.51c0.03,0,0.1,0.01,0.2,0.01v2.42c-0.15-0.02-0.28-0.03-0.4-0.03s-0.21-0.01-0.28-0.01
		c-0.95,0-1.59,0.31-1.92,0.93c-0.18,0.35-0.27,0.89-0.27,1.61v4.32H65.8v-9.05h2.26v1.58c0.37-0.6,0.68-1.02,0.95-1.24
		c0.44-0.37,1.02-0.56,1.73-0.56C70.79,36.51,70.82,36.51,70.85,36.51z"/>
	<path d="M76.55,33.02l-2.52,2.48h-1.71l1.59-2.48H76.55z M72.48,36.72h2.4v9.05h-2.4V36.72z"/>
	<path d="M80.75,40.27c0.44-0.06,0.76-0.12,0.94-0.21c0.34-0.14,0.51-0.37,0.51-0.67c0-0.37-0.13-0.63-0.39-0.77
		c-0.26-0.14-0.64-0.21-1.15-0.21c-0.57,0-0.97,0.14-1.2,0.42c-0.17,0.2-0.28,0.48-0.34,0.83h-2.28c0.05-0.79,0.27-1.44,0.67-1.95
		c0.63-0.8,1.71-1.2,3.23-1.2c0.99,0,1.88,0.2,2.65,0.59s1.16,1.13,1.16,2.22v4.15c0,0.29,0.01,0.64,0.02,1.05
		c0.02,0.31,0.06,0.52,0.14,0.63s0.19,0.2,0.35,0.27v0.35h-2.57c-0.07-0.18-0.12-0.35-0.15-0.51s-0.05-0.34-0.07-0.55
		c-0.33,0.35-0.71,0.66-1.14,0.9c-0.51,0.29-1.09,0.44-1.74,0.44c-0.82,0-1.5-0.23-2.04-0.7c-0.54-0.47-0.81-1.13-0.81-1.99
		c0-1.11,0.43-1.92,1.3-2.42c0.47-0.27,1.17-0.46,2.09-0.58L80.75,40.27z M82.2,41.37c-0.15,0.09-0.3,0.17-0.46,0.23
		c-0.15,0.06-0.37,0.11-0.64,0.16l-0.54,0.1c-0.5,0.09-0.87,0.2-1.09,0.32c-0.37,0.22-0.56,0.55-0.56,1c0,0.4,0.11,0.7,0.34,0.88
		c0.23,0.18,0.5,0.27,0.83,0.27c0.52,0,0.99-0.15,1.43-0.45s0.66-0.84,0.68-1.64V41.37z"/>
	<path d="M97.24,36.9c0.63,0.28,1.15,0.73,1.56,1.34c0.37,0.54,0.61,1.16,0.72,1.87c0.06,0.42,0.09,1.01,0.08,1.8h-6.59
		c0.04,0.91,0.35,1.54,0.95,1.91c0.36,0.23,0.8,0.34,1.3,0.34c0.54,0,0.98-0.14,1.31-0.42c0.18-0.15,0.35-0.36,0.49-0.62h2.42
		c-0.06,0.54-0.36,1.08-0.88,1.64c-0.81,0.88-1.95,1.32-3.4,1.32c-1.2,0-2.27-0.37-3.19-1.11c-0.92-0.74-1.38-1.95-1.38-3.62
		c0-1.57,0.42-2.77,1.25-3.61c0.83-0.84,1.91-1.25,3.24-1.25C95.9,36.48,96.61,36.62,97.24,36.9z M93.7,38.95
		c-0.33,0.34-0.54,0.81-0.63,1.4h4.08c-0.04-0.63-0.25-1.1-0.63-1.43c-0.38-0.33-0.84-0.49-1.4-0.49
		C94.51,38.43,94.03,38.6,93.7,38.95z"/>
	<path d="M108.09,37.24c0.59,0.49,0.89,1.3,0.89,2.44v6.09h-2.42v-5.5c0-0.48-0.06-0.84-0.19-1.1c-0.23-0.46-0.67-0.7-1.32-0.7
		c-0.8,0-1.34,0.34-1.64,1.02c-0.15,0.36-0.23,0.82-0.23,1.38v4.9h-2.37v-9.03h2.29v1.32c0.3-0.46,0.59-0.8,0.86-1
		c0.48-0.37,1.1-0.55,1.84-0.55C106.74,36.51,107.5,36.75,108.09,37.24z"/>
	<path d="M3.94,55.21c0.99-1.01,2.24-1.51,3.76-1.51c2.04,0,3.53,0.68,4.47,2.03c0.52,0.76,0.8,1.52,0.84,2.28h-2.56
		c-0.16-0.59-0.37-1.03-0.63-1.33c-0.46-0.53-1.13-0.8-2.02-0.8c-0.91,0-1.63,0.38-2.16,1.12c-0.53,0.75-0.79,1.81-0.79,3.18
		s0.28,2.4,0.83,3.08c0.55,0.68,1.26,1.02,2.11,1.02c0.88,0,1.55-0.29,2.01-0.88c0.25-0.32,0.47-0.79,0.63-1.42h2.54
		c-0.22,1.33-0.78,2.42-1.68,3.25c-0.9,0.84-2.05,1.25-3.46,1.25c-1.74,0-3.11-0.56-4.11-1.69c-1-1.13-1.49-2.69-1.49-4.67
		C2.23,58.01,2.8,56.37,3.94,55.21z"/>
	<path d="M22.4,65.06c-0.76,0.94-1.92,1.41-3.48,1.41s-2.71-0.47-3.48-1.41c-0.76-0.94-1.15-2.08-1.15-3.41
		c0-1.3,0.38-2.43,1.15-3.39s1.92-1.44,3.48-1.44s2.71,0.48,3.48,1.44s1.15,2.09,1.15,3.39C23.54,62.98,23.16,64.12,22.4,65.06z
		 M20.5,63.75c0.37-0.49,0.56-1.19,0.56-2.1c0-0.91-0.19-1.6-0.56-2.09c-0.37-0.49-0.9-0.73-1.59-0.73s-1.22,0.25-1.6,0.73
		c-0.37,0.49-0.56,1.19-0.56,2.09c0,0.91,0.19,1.61,0.56,2.1c0.37,0.49,0.91,0.74,1.6,0.74S20.13,64.25,20.5,63.75z"/>
	<path d="M36.53,57.15c0.39,0.15,0.74,0.43,1.05,0.81c0.25,0.32,0.43,0.7,0.51,1.16c0.06,0.3,0.08,0.75,0.08,1.34l-0.02,5.7h-2.42
		v-5.76c0-0.34-0.06-0.62-0.17-0.85c-0.21-0.42-0.6-0.63-1.16-0.63c-0.65,0-1.1,0.27-1.35,0.81c-0.13,0.29-0.19,0.63-0.19,1.04v5.39
		h-2.38v-5.39c0-0.54-0.06-0.93-0.17-1.17c-0.2-0.44-0.59-0.66-1.17-0.66c-0.68,0-1.13,0.22-1.36,0.66
		c-0.13,0.25-0.19,0.62-0.19,1.11v5.45h-2.4v-9.03h2.3v1.32c0.29-0.47,0.57-0.8,0.83-1c0.46-0.35,1.05-0.53,1.78-0.53
		c0.69,0,1.25,0.15,1.68,0.46c0.34,0.28,0.6,0.64,0.78,1.09c0.31-0.53,0.69-0.92,1.15-1.17c0.49-0.25,1.03-0.37,1.63-0.37
		C35.75,56.92,36.14,57,36.53,57.15z"/>
	<path d="M47.96,58.09c0.74,0.78,1.11,1.93,1.11,3.44c0,1.59-0.36,2.81-1.08,3.64s-1.65,1.25-2.79,1.25c-0.72,0-1.33-0.18-1.8-0.54
		c-0.26-0.2-0.52-0.49-0.77-0.87v4.71h-2.34V57.12h2.27v1.34c0.26-0.39,0.53-0.7,0.82-0.93c0.53-0.4,1.16-0.61,1.89-0.61
		C46.32,56.92,47.22,57.31,47.96,58.09z M46.15,59.79c-0.32-0.54-0.84-0.81-1.56-0.81c-0.87,0-1.46,0.41-1.79,1.22
		c-0.17,0.43-0.25,0.98-0.25,1.64c0,1.05,0.28,1.79,0.85,2.22c0.34,0.25,0.73,0.37,1.19,0.37c0.67,0,1.17-0.25,1.52-0.76
		s0.52-1.19,0.52-2.03C46.63,60.95,46.47,60.33,46.15,59.79z"/>
	<path d="M53.09,57.12v5.45c0,0.52,0.06,0.9,0.18,1.16c0.21,0.46,0.64,0.69,1.26,0.69c0.8,0,1.35-0.33,1.65-0.98
		c0.15-0.35,0.23-0.82,0.23-1.4v-4.92h2.4v9.05h-2.3v-1.28c-0.02,0.03-0.08,0.11-0.17,0.25s-0.19,0.26-0.31,0.37
		c-0.37,0.33-0.73,0.56-1.07,0.68c-0.35,0.12-0.75,0.18-1.21,0.18c-1.34,0-2.23-0.48-2.7-1.44c-0.26-0.53-0.39-1.31-0.39-2.35v-5.45
		H53.09z"/>
	<path d="M60.19,58.89V57.2h1.26v-2.52h2.34v2.52h1.47v1.68h-1.47v4.78c0,0.37,0.05,0.6,0.14,0.69c0.09,0.09,0.38,0.14,0.86,0.14
		c0.07,0,0.15,0,0.23,0c0.08,0,0.16-0.01,0.24-0.01v1.77l-1.12,0.04c-1.12,0.04-1.88-0.15-2.29-0.58c-0.27-0.27-0.4-0.69-0.4-1.25
		v-5.57H60.19z"/>
	<path d="M70.37,60.67c0.44-0.06,0.76-0.12,0.94-0.21c0.34-0.14,0.51-0.37,0.51-0.67c0-0.37-0.13-0.63-0.39-0.77
		c-0.26-0.14-0.64-0.21-1.15-0.21c-0.57,0-0.97,0.14-1.2,0.41c-0.17,0.21-0.28,0.48-0.34,0.83h-2.28c0.05-0.79,0.27-1.44,0.67-1.95
		c0.63-0.8,1.71-1.2,3.23-1.2c0.99,0,1.88,0.2,2.65,0.59c0.77,0.39,1.16,1.13,1.16,2.22v4.15c0,0.29,0.01,0.64,0.02,1.05
		c0.02,0.31,0.06,0.52,0.14,0.63c0.08,0.11,0.19,0.2,0.35,0.27v0.35H72.1c-0.07-0.18-0.12-0.35-0.15-0.51s-0.05-0.34-0.07-0.55
		c-0.33,0.35-0.71,0.66-1.14,0.91c-0.51,0.29-1.09,0.44-1.74,0.44c-0.82,0-1.5-0.23-2.04-0.7c-0.54-0.47-0.81-1.13-0.81-1.99
		c0-1.11,0.43-1.92,1.3-2.42c0.47-0.27,1.17-0.46,2.09-0.58L70.37,60.67z M71.81,61.77c-0.15,0.09-0.3,0.17-0.46,0.23
		c-0.15,0.06-0.37,0.11-0.64,0.16l-0.54,0.1c-0.5,0.09-0.87,0.2-1.09,0.32c-0.37,0.22-0.56,0.55-0.56,1c0,0.4,0.11,0.7,0.34,0.88
		s0.5,0.27,0.83,0.27c0.52,0,0.99-0.15,1.43-0.45s0.66-0.84,0.68-1.64V61.77z"/>
	<path d="M81.65,60.37c-0.04-0.34-0.16-0.64-0.34-0.91c-0.27-0.37-0.68-0.55-1.24-0.55c-0.8,0-1.35,0.39-1.64,1.19
		c-0.16,0.42-0.23,0.98-0.23,1.67c0,0.66,0.08,1.2,0.23,1.6c0.28,0.75,0.82,1.13,1.6,1.13c0.55,0,0.95-0.15,1.18-0.45
		s0.37-0.69,0.42-1.16h2.42c-0.06,0.72-0.32,1.4-0.78,2.04c-0.74,1.04-1.84,1.55-3.3,1.55c-1.46,0-2.53-0.43-3.22-1.29
		s-1.03-1.98-1.03-3.36c0-1.55,0.38-2.76,1.14-3.62s1.81-1.29,3.14-1.29c1.14,0,2.06,0.25,2.79,0.76c0.72,0.51,1.15,1.41,1.28,2.7
		H81.65z"/>
	<path d="M88.12,56.04h-2.4v-2.18h2.4V56.04z M85.72,57.12h2.4v9.05h-2.4V57.12z"/>
	<path d="M97.96,65.06c-0.76,0.94-1.92,1.41-3.48,1.41S91.77,66,91,65.06c-0.76-0.94-1.15-2.08-1.15-3.41c0-1.3,0.38-2.43,1.15-3.39
		s1.92-1.44,3.48-1.44s2.71,0.48,3.48,1.44s1.15,2.09,1.15,3.39C99.1,62.98,98.72,64.12,97.96,65.06z M96.07,63.75
		c0.37-0.49,0.56-1.19,0.56-2.1c0-0.91-0.19-1.6-0.56-2.09c-0.37-0.49-0.9-0.73-1.59-0.73s-1.22,0.25-1.6,0.73
		c-0.37,0.49-0.56,1.19-0.56,2.09c0,0.91,0.19,1.61,0.56,2.1c0.37,0.49,0.91,0.74,1.6,0.74S95.7,64.25,96.07,63.75z M97.31,53.42
		l-2.52,2.48h-1.71l1.59-2.48H97.31z"/>
	<path d="M108.09,57.64c0.59,0.49,0.89,1.3,0.89,2.44v6.09h-2.42v-5.5c0-0.48-0.06-0.84-0.19-1.1c-0.23-0.46-0.67-0.7-1.32-0.7
		c-0.8,0-1.34,0.34-1.64,1.02c-0.15,0.36-0.23,0.82-0.23,1.38v4.9h-2.37v-9.03h2.29v1.32c0.3-0.46,0.59-0.8,0.86-1
		c0.48-0.37,1.1-0.55,1.84-0.55C106.74,56.91,107.5,57.15,108.09,57.64z"/>
</g>
<g>
	<rect x="120.75" y="1.56" class="st0" width="3" height="90"/>
</g>
<g>
	<g>
		<path d="M211.54,90.36h-81.24c-1.82,0-3.31-1.48-3.31-3.31V6.31c0-1.82,1.48-3.31,3.31-3.31h81.24c1.83,0,3.31,1.48,3.31,3.31
			v80.75C214.84,88.88,213.36,90.36,211.54,90.36z M130.29,4.89c-0.78,0-1.42,0.64-1.42,1.42v80.75c0,0.78,0.63,1.42,1.42,1.42
			h81.24c0.78,0,1.42-0.64,1.42-1.42V6.31c0-0.78-0.63-1.42-1.42-1.42H130.29z"/>
	</g>
	<g>
		<path d="M179.46,21.63v8.57c7.51,3.41,12.73,10.97,12.73,19.75c0,11.97-9.71,21.68-21.68,21.68s-21.68-9.71-21.68-21.68
			c0-9.02,5.5-16.75,13.34-20.02v-8.39c-12.14,3.65-20.98,14.91-20.98,28.24c0,16.28,13.2,29.49,29.49,29.49s29.49-13.2,29.49-29.49
			C200.16,36.56,191.45,25.36,179.46,21.63z"/>
		<path d="M175.24,35.43V14.94c0-0.88-0.72-1.61-1.61-1.61H168c-0.88,0-1.61,0.72-1.61,1.61v20.49
			c-6.21,1.89-10.72,7.66-10.72,14.49c0,8.36,6.78,15.15,15.15,15.15s15.15-6.78,15.15-15.15
			C185.96,43.09,181.44,37.32,175.24,35.43z M170.73,61.14c-6.15,0-11.14-4.98-11.14-11.14c0-4.61,2.8-8.57,6.8-10.26v8.43
			c0,0.88,0.72,1.61,1.61,1.61h5.63c0.88,0,1.61-0.72,1.61-1.61v-8.36c3.9,1.73,6.63,5.64,6.63,10.18
			C181.86,56.15,176.88,61.14,170.73,61.14z"/>
	</g>
</g>
</svg>
